# xmcd
#
# Track frame offsets:
#	150
#	7576
#	20808
#	38385
#	52005
#	69195
#	82294
#	98633
#	110269
#	125678
#	143114
#	150617
#
# Disc length: 2604 seconds
#
# Revision: 0
# Processed by: cddbd v1.4PL0 Copyright (c) Steve Scherf et al.
# Submitted via: dBpowerAMP V4.0
#
DISCID=900a2a0c
DTITLE=Jazzy Chazz - (Stereo) 360 Surround 
DYEAR=2002
DGENRE=Hip Hop 
TTITLE0=Faded Grey Pavement
TTITLE1=Change
TTITLE2=One Shot
TTITLE3=I See
TTITLE4=Impossible
TTITLE5=Spring Break
TTITLE6=Closure
TTITLE7=Hope
TTITLE8=Do My Thing
TTITLE9=Watch the Clouds
TTITLE10=Mysterious Division
TTITLE11=Outro?
EXTD=
EXTT0=
EXTT1=
EXTT2=
EXTT3=
EXTT4=
EXTT5=
EXTT6=
EXTT7=
EXTT8=
EXTT9=
EXTT10=
EXTT11=
PLAYORDER=
